<mxfile host="app.diagrams.net" agent="Mozilla/5.0 (Windows NT 10.0; Win64; x64) AppleWebKit/537.36 (KHTML, like Gecko) Chrome/137.0.0.0 Safari/537.36 Edg/137.0.0.0" version="27.1.1">
  <diagram name="Page-1" id="2YBvvXClWsGukQMizWep">
    <mxGraphModel dx="798" dy="1579" grid="1" gridSize="10" guides="1" tooltips="1" connect="1" arrows="1" fold="1" page="1" pageScale="1" pageWidth="850" pageHeight="1100" math="0" shadow="0">
      <root>
        <mxCell id="0" />
        <mxCell id="1" parent="0" />
        <mxCell id="aM9ryv3xv72pqoxQDRHE-1" value="&lt;font style=&quot;font-size: 14px;&quot;&gt;User&lt;/font&gt;" style="shape=umlLifeline;perimeter=lifelinePerimeter;whiteSpace=wrap;html=1;container=0;dropTarget=0;collapsible=0;recursiveResize=0;outlineConnect=0;portConstraint=eastwest;newEdgeStyle={&quot;edgeStyle&quot;:&quot;elbowEdgeStyle&quot;,&quot;elbow&quot;:&quot;vertical&quot;,&quot;curved&quot;:0,&quot;rounded&quot;:0};" parent="1" vertex="1">
          <mxGeometry x="65" y="40" width="100" height="320" as="geometry" />
        </mxCell>
        <mxCell id="aM9ryv3xv72pqoxQDRHE-4" value="" style="html=1;points=[];perimeter=orthogonalPerimeter;outlineConnect=0;targetShapes=umlLifeline;portConstraint=eastwest;newEdgeStyle={&quot;edgeStyle&quot;:&quot;elbowEdgeStyle&quot;,&quot;elbow&quot;:&quot;vertical&quot;,&quot;curved&quot;:0,&quot;rounded&quot;:0};" parent="aM9ryv3xv72pqoxQDRHE-1" vertex="1">
          <mxGeometry x="45" y="70" width="10" height="43" as="geometry" />
        </mxCell>
        <mxCell id="bocoJ65bvH36WSnfuDXv-1" value="&lt;font style=&quot;font-size: 14px;&quot;&gt;&lt;b&gt;Scenario: Using Water Intake Tracker To add a glass of Water&lt;/b&gt;&lt;/font&gt;" style="text;html=1;align=center;verticalAlign=middle;whiteSpace=wrap;rounded=0;" parent="1" vertex="1">
          <mxGeometry x="210" y="-40" width="430" height="30" as="geometry" />
        </mxCell>
        <mxCell id="bocoJ65bvH36WSnfuDXv-3" value="" style="shape=umlActor;verticalLabelPosition=bottom;verticalAlign=top;html=1;outlineConnect=0;" parent="1" vertex="1">
          <mxGeometry x="105" y="-10" width="20" height="40" as="geometry" />
        </mxCell>
        <mxCell id="bocoJ65bvH36WSnfuDXv-4" value="&lt;font style=&quot;font-size: 12px;&quot;&gt;click btnAddWater()&lt;/font&gt;" style="html=1;verticalAlign=bottom;endArrow=block;edgeStyle=elbowEdgeStyle;elbow=vertical;curved=0;rounded=0;" parent="1" edge="1">
          <mxGeometry relative="1" as="geometry">
            <mxPoint x="120" y="132" as="sourcePoint" />
            <Array as="points">
              <mxPoint x="179" y="132" />
            </Array>
            <mxPoint x="264" y="132" as="targetPoint" />
            <mxPoint as="offset" />
          </mxGeometry>
        </mxCell>
        <mxCell id="bocoJ65bvH36WSnfuDXv-5" value="&lt;font style=&quot;font-size: 14px;&quot;&gt;DashboardForm&lt;/font&gt;" style="shape=umlLifeline;perimeter=lifelinePerimeter;whiteSpace=wrap;html=1;container=0;dropTarget=0;collapsible=0;recursiveResize=0;outlineConnect=0;portConstraint=eastwest;newEdgeStyle={&quot;edgeStyle&quot;:&quot;elbowEdgeStyle&quot;,&quot;elbow&quot;:&quot;vertical&quot;,&quot;curved&quot;:0,&quot;rounded&quot;:0};" parent="1" vertex="1">
          <mxGeometry x="216" y="40" width="110" height="320" as="geometry" />
        </mxCell>
        <mxCell id="bocoJ65bvH36WSnfuDXv-6" value="" style="html=1;points=[];perimeter=orthogonalPerimeter;outlineConnect=0;targetShapes=umlLifeline;portConstraint=eastwest;newEdgeStyle={&quot;edgeStyle&quot;:&quot;elbowEdgeStyle&quot;,&quot;elbow&quot;:&quot;vertical&quot;,&quot;curved&quot;:0,&quot;rounded&quot;:0};" parent="bocoJ65bvH36WSnfuDXv-5" vertex="1">
          <mxGeometry x="49" y="70" width="10" height="60" as="geometry" />
        </mxCell>
        <mxCell id="bocoJ65bvH36WSnfuDXv-7" value="&lt;font style=&quot;font-size: 14px;&quot;&gt;DashboardFormClass&lt;/font&gt;" style="shape=umlLifeline;perimeter=lifelinePerimeter;whiteSpace=wrap;html=1;container=0;dropTarget=0;collapsible=0;recursiveResize=0;outlineConnect=0;portConstraint=eastwest;newEdgeStyle={&quot;edgeStyle&quot;:&quot;elbowEdgeStyle&quot;,&quot;elbow&quot;:&quot;vertical&quot;,&quot;curved&quot;:0,&quot;rounded&quot;:0};" parent="1" vertex="1">
          <mxGeometry x="397" y="40" width="150" height="320" as="geometry" />
        </mxCell>
        <mxCell id="bocoJ65bvH36WSnfuDXv-8" value="" style="html=1;points=[];perimeter=orthogonalPerimeter;outlineConnect=0;targetShapes=umlLifeline;portConstraint=eastwest;newEdgeStyle={&quot;edgeStyle&quot;:&quot;elbowEdgeStyle&quot;,&quot;elbow&quot;:&quot;vertical&quot;,&quot;curved&quot;:0,&quot;rounded&quot;:0};" parent="bocoJ65bvH36WSnfuDXv-7" vertex="1">
          <mxGeometry x="69" y="90" width="10" height="60" as="geometry" />
        </mxCell>
        <mxCell id="y3lw5lMx9b7rdqoI2r3e-30" value="" style="html=1;points=[];perimeter=orthogonalPerimeter;outlineConnect=0;targetShapes=umlLifeline;portConstraint=eastwest;newEdgeStyle={&quot;edgeStyle&quot;:&quot;elbowEdgeStyle&quot;,&quot;elbow&quot;:&quot;vertical&quot;,&quot;curved&quot;:0,&quot;rounded&quot;:0};" vertex="1" parent="bocoJ65bvH36WSnfuDXv-7">
          <mxGeometry x="70" y="192" width="10" height="98" as="geometry" />
        </mxCell>
        <mxCell id="bocoJ65bvH36WSnfuDXv-9" value="&lt;font style=&quot;font-size: 14px;&quot;&gt;UserDataManager&lt;/font&gt;" style="shape=umlLifeline;perimeter=lifelinePerimeter;whiteSpace=wrap;html=1;container=0;dropTarget=0;collapsible=0;recursiveResize=0;outlineConnect=0;portConstraint=eastwest;newEdgeStyle={&quot;edgeStyle&quot;:&quot;elbowEdgeStyle&quot;,&quot;elbow&quot;:&quot;vertical&quot;,&quot;curved&quot;:0,&quot;rounded&quot;:0};" parent="1" vertex="1">
          <mxGeometry x="587" y="40" width="119" height="320" as="geometry" />
        </mxCell>
        <mxCell id="bocoJ65bvH36WSnfuDXv-10" value="" style="html=1;points=[];perimeter=orthogonalPerimeter;outlineConnect=0;targetShapes=umlLifeline;portConstraint=eastwest;newEdgeStyle={&quot;edgeStyle&quot;:&quot;elbowEdgeStyle&quot;,&quot;elbow&quot;:&quot;vertical&quot;,&quot;curved&quot;:0,&quot;rounded&quot;:0};" parent="bocoJ65bvH36WSnfuDXv-9" vertex="1">
          <mxGeometry x="54" y="124" width="10" height="40" as="geometry" />
        </mxCell>
        <mxCell id="bocoJ65bvH36WSnfuDXv-11" value="&lt;font style=&quot;font-size: 14px;&quot;&gt;Database&lt;/font&gt;" style="shape=umlLifeline;perimeter=lifelinePerimeter;whiteSpace=wrap;html=1;container=0;dropTarget=0;collapsible=0;recursiveResize=0;outlineConnect=0;portConstraint=eastwest;newEdgeStyle={&quot;edgeStyle&quot;:&quot;elbowEdgeStyle&quot;,&quot;elbow&quot;:&quot;vertical&quot;,&quot;curved&quot;:0,&quot;rounded&quot;:0};" parent="1" vertex="1">
          <mxGeometry x="770" y="40" width="119" height="320" as="geometry" />
        </mxCell>
        <mxCell id="bocoJ65bvH36WSnfuDXv-12" value="" style="html=1;points=[];perimeter=orthogonalPerimeter;outlineConnect=0;targetShapes=umlLifeline;portConstraint=eastwest;newEdgeStyle={&quot;edgeStyle&quot;:&quot;elbowEdgeStyle&quot;,&quot;elbow&quot;:&quot;vertical&quot;,&quot;curved&quot;:0,&quot;rounded&quot;:0};" parent="bocoJ65bvH36WSnfuDXv-11" vertex="1">
          <mxGeometry x="53" y="140" width="10" height="60" as="geometry" />
        </mxCell>
        <mxCell id="y3lw5lMx9b7rdqoI2r3e-1" value="&lt;font style=&quot;font-size: 12px;&quot;&gt;SetWaterIntake()&lt;/font&gt;" style="html=1;verticalAlign=bottom;endArrow=block;edgeStyle=elbowEdgeStyle;elbow=vertical;curved=0;rounded=0;" edge="1" parent="1">
          <mxGeometry x="0.0006" relative="1" as="geometry">
            <mxPoint x="274" y="151" as="sourcePoint" />
            <Array as="points">
              <mxPoint x="359" y="151" />
            </Array>
            <mxPoint x="466" y="150.99999999999977" as="targetPoint" />
            <mxPoint as="offset" />
          </mxGeometry>
        </mxCell>
        <mxCell id="y3lw5lMx9b7rdqoI2r3e-3" value="&lt;font style=&quot;font-size: 12px;&quot;&gt;UpdateDailyWaterIntake()&lt;/font&gt;" style="html=1;verticalAlign=bottom;endArrow=block;edgeStyle=elbowEdgeStyle;elbow=vertical;curved=0;rounded=0;" edge="1" parent="1">
          <mxGeometry relative="1" as="geometry">
            <mxPoint x="474" y="176" as="sourcePoint" />
            <Array as="points">
              <mxPoint x="536" y="176" />
            </Array>
            <mxPoint x="640" y="176" as="targetPoint" />
            <mxPoint as="offset" />
          </mxGeometry>
        </mxCell>
        <mxCell id="y3lw5lMx9b7rdqoI2r3e-4" value="&lt;font style=&quot;font-size: 12px;&quot;&gt;Execute SQL&amp;nbsp;(lookup user)&lt;/font&gt;" style="html=1;verticalAlign=bottom;endArrow=block;edgeStyle=elbowEdgeStyle;elbow=vertical;curved=0;rounded=0;" edge="1" parent="1">
          <mxGeometry relative="1" as="geometry">
            <mxPoint x="652" y="198" as="sourcePoint" />
            <Array as="points">
              <mxPoint x="737" y="198" />
            </Array>
            <mxPoint x="822" y="198" as="targetPoint" />
            <mxPoint as="offset" />
          </mxGeometry>
        </mxCell>
        <mxCell id="y3lw5lMx9b7rdqoI2r3e-6" value="&lt;font style=&quot;font-size: 12px;&quot;&gt;Executed Logic&lt;/font&gt;" style="html=1;verticalAlign=bottom;endArrow=open;dashed=1;endSize=8;edgeStyle=elbowEdgeStyle;elbow=vertical;curved=0;rounded=0;" edge="1" parent="1">
          <mxGeometry relative="1" as="geometry">
            <mxPoint x="651" y="227" as="targetPoint" />
            <Array as="points">
              <mxPoint x="746" y="227" />
            </Array>
            <mxPoint x="821" y="227" as="sourcePoint" />
            <mxPoint as="offset" />
          </mxGeometry>
        </mxCell>
        <mxCell id="y3lw5lMx9b7rdqoI2r3e-7" value="&lt;font style=&quot;font-size: 12px;&quot;&gt;UpdateWater Result&lt;/font&gt;" style="html=1;verticalAlign=bottom;endArrow=open;dashed=1;endSize=8;edgeStyle=elbowEdgeStyle;elbow=vertical;curved=0;rounded=0;" edge="1" parent="1">
          <mxGeometry relative="1" as="geometry">
            <mxPoint x="477" y="247" as="targetPoint" />
            <Array as="points">
              <mxPoint x="557" y="247" />
            </Array>
            <mxPoint x="640" y="247" as="sourcePoint" />
          </mxGeometry>
        </mxCell>
        <mxCell id="y3lw5lMx9b7rdqoI2r3e-8" value="&lt;font style=&quot;font-size: 12px;&quot;&gt;Result&lt;/font&gt;" style="html=1;verticalAlign=bottom;endArrow=open;dashed=1;endSize=8;edgeStyle=elbowEdgeStyle;elbow=vertical;curved=0;rounded=0;" edge="1" parent="1">
          <mxGeometry relative="1" as="geometry">
            <mxPoint x="273.7307692307693" y="274.9999999999998" as="targetPoint" />
            <Array as="points">
              <mxPoint x="393" y="275" />
            </Array>
            <mxPoint x="467" y="274.9999999999998" as="sourcePoint" />
          </mxGeometry>
        </mxCell>
        <mxCell id="y3lw5lMx9b7rdqoI2r3e-9" value="if Success&amp;nbsp;" style="text;html=1;align=center;verticalAlign=middle;resizable=0;points=[];autosize=1;strokeColor=none;fillColor=none;" vertex="1" parent="1">
          <mxGeometry x="266" y="280" width="80" height="30" as="geometry" />
        </mxCell>
        <mxCell id="y3lw5lMx9b7rdqoI2r3e-18" value="&lt;font style=&quot;font-size: 12px;&quot;&gt;AddedOneGlass&lt;/font&gt;" style="html=1;verticalAlign=bottom;endArrow=block;edgeStyle=elbowEdgeStyle;elbow=vertical;curved=0;rounded=0;" edge="1" parent="1">
          <mxGeometry x="0.0081" relative="1" as="geometry">
            <mxPoint x="343" y="300" as="sourcePoint" />
            <Array as="points" />
            <mxPoint x="466" y="300" as="targetPoint" />
            <mxPoint as="offset" />
          </mxGeometry>
        </mxCell>
        <mxCell id="y3lw5lMx9b7rdqoI2r3e-19" value="else" style="text;html=1;align=center;verticalAlign=middle;resizable=0;points=[];autosize=1;strokeColor=none;fillColor=none;" vertex="1" parent="1">
          <mxGeometry x="278" y="306" width="50" height="30" as="geometry" />
        </mxCell>
        <mxCell id="y3lw5lMx9b7rdqoI2r3e-21" value="&lt;font style=&quot;font-size: 12px;&quot;&gt;ShowError()&lt;/font&gt;" style="html=1;verticalAlign=bottom;endArrow=block;edgeStyle=elbowEdgeStyle;elbow=vertical;curved=0;rounded=0;" edge="1" parent="1">
          <mxGeometry x="0.0019" relative="1" as="geometry">
            <mxPoint x="323" y="321.1111111111111" as="sourcePoint" />
            <Array as="points">
              <mxPoint x="280" y="321" />
            </Array>
            <mxPoint x="466" y="321" as="targetPoint" />
            <mxPoint as="offset" />
          </mxGeometry>
        </mxCell>
        <mxCell id="y3lw5lMx9b7rdqoI2r3e-23" value="" style="html=1;points=[];perimeter=orthogonalPerimeter;outlineConnect=0;targetShapes=umlLifeline;portConstraint=eastwest;newEdgeStyle={&quot;edgeStyle&quot;:&quot;elbowEdgeStyle&quot;,&quot;elbow&quot;:&quot;vertical&quot;,&quot;curved&quot;:0,&quot;rounded&quot;:0};" vertex="1" parent="1">
          <mxGeometry x="264" y="262" width="10" height="71" as="geometry" />
        </mxCell>
        <mxCell id="y3lw5lMx9b7rdqoI2r3e-24" value="" style="html=1;points=[];perimeter=orthogonalPerimeter;outlineConnect=0;targetShapes=umlLifeline;portConstraint=eastwest;newEdgeStyle={&quot;edgeStyle&quot;:&quot;elbowEdgeStyle&quot;,&quot;elbow&quot;:&quot;vertical&quot;,&quot;curved&quot;:0,&quot;rounded&quot;:0};" vertex="1" parent="1">
          <mxGeometry x="641" y="220" width="10" height="40" as="geometry" />
        </mxCell>
        <mxCell id="y3lw5lMx9b7rdqoI2r3e-25" value="User" style="rounded=0;whiteSpace=wrap;html=1;" vertex="1" parent="1">
          <mxGeometry x="70" y="360" width="90" height="40" as="geometry" />
        </mxCell>
        <mxCell id="y3lw5lMx9b7rdqoI2r3e-26" value="DashboardForm" style="rounded=0;whiteSpace=wrap;html=1;" vertex="1" parent="1">
          <mxGeometry x="223" y="360" width="94" height="40" as="geometry" />
        </mxCell>
        <mxCell id="y3lw5lMx9b7rdqoI2r3e-27" value="DashboardForm Class" style="rounded=0;whiteSpace=wrap;html=1;" vertex="1" parent="1">
          <mxGeometry x="424" y="360" width="100" height="40" as="geometry" />
        </mxCell>
        <mxCell id="y3lw5lMx9b7rdqoI2r3e-28" value="UserDataManager&lt;div&gt;&lt;br&gt;&lt;/div&gt;" style="rounded=0;whiteSpace=wrap;html=1;" vertex="1" parent="1">
          <mxGeometry x="586.5" y="360" width="118.5" height="40" as="geometry" />
        </mxCell>
        <mxCell id="y3lw5lMx9b7rdqoI2r3e-29" value="Database" style="rounded=0;whiteSpace=wrap;html=1;" vertex="1" parent="1">
          <mxGeometry x="784.5" y="360" width="90" height="40" as="geometry" />
        </mxCell>
        <mxCell id="y3lw5lMx9b7rdqoI2r3e-33" value="" style="endArrow=none;html=1;rounded=0;" edge="1" parent="1">
          <mxGeometry width="50" height="50" relative="1" as="geometry">
            <mxPoint x="948" y="240" as="sourcePoint" />
            <mxPoint x="948" y="180" as="targetPoint" />
          </mxGeometry>
        </mxCell>
        <mxCell id="y3lw5lMx9b7rdqoI2r3e-34" value="" style="endArrow=none;html=1;rounded=0;" edge="1" parent="1">
          <mxGeometry width="50" height="50" relative="1" as="geometry">
            <mxPoint x="19" y="276" as="sourcePoint" />
            <mxPoint x="19" y="216" as="targetPoint" />
          </mxGeometry>
        </mxCell>
        <mxCell id="y3lw5lMx9b7rdqoI2r3e-35" value="" style="endArrow=none;html=1;rounded=0;" edge="1" parent="1">
          <mxGeometry width="50" height="50" relative="1" as="geometry">
            <mxPoint x="390" y="444" as="sourcePoint" />
            <mxPoint x="470" y="444" as="targetPoint" />
          </mxGeometry>
        </mxCell>
        <mxCell id="y3lw5lMx9b7rdqoI2r3e-37" value="" style="endArrow=none;html=1;rounded=0;" edge="1" parent="1">
          <mxGeometry width="50" height="50" relative="1" as="geometry">
            <mxPoint x="410" y="-63" as="sourcePoint" />
            <mxPoint x="490" y="-63" as="targetPoint" />
          </mxGeometry>
        </mxCell>
      </root>
    </mxGraphModel>
  </diagram>
</mxfile>
